<svg id="svg" version="1.1" xmlns="http://www.w3.org/2000/svg" xmlns:xlink="http://www.w3.org/1999/xlink" width="400" height="400" viewBox="0, 0, 400,400"><g id="svgg"><path id="path0" d="M248.566 147.638 C 242.758 150.532,243.221 158.262,249.337 160.512 C 250.211 160.833,251.915 161.457,253.125 161.897 C 256.104 162.982,257.037 163.969,257.037 166.040 C 257.037 170.669,251.765 172.615,247.343 169.618 C 245.325 168.250,244.606 168.244,243.911 169.588 C 242.456 172.400,251.440 174.993,255.741 173.002 C 263.269 169.516,261.837 161.162,253.222 158.298 C 248.056 156.581,246.358 153.819,248.796 151.097 C 250.601 149.083,253.916 148.951,256.896 150.775 C 258.449 151.725,258.719 151.675,259.277 150.327 C 260.501 147.372,252.920 145.469,248.566 147.638 M138.148 147.194 C 138.148 147.281,140.315 150.922,142.963 155.286 L 147.778 163.221 147.778 168.277 L 147.778 173.333 149.444 173.333 L 151.111 173.333 151.111 168.171 L 151.111 163.009 155.924 155.004 L 160.736 146.998 158.803 147.110 L 156.870 147.222 153.245 153.519 C 149.272 160.421,149.224 160.477,148.550 158.991 C 148.294 158.426,146.666 155.505,144.932 152.500 L 141.779 147.037 139.964 147.037 C 138.965 147.037,138.148 147.108,138.148 147.194 M164.074 156.044 C 164.074 170.306,165.972 173.502,174.444 173.514 C 183.145 173.525,185.185 170.034,185.185 155.135 L 185.185 147.037 183.333 147.037 L 181.481 147.037 181.481 156.238 C 181.481 167.906,180.703 169.831,175.677 170.585 C 169.223 171.552,167.407 168.237,167.407 155.488 L 167.407 147.037 165.741 147.037 L 164.074 147.037 164.074 156.044 M191.481 160.154 L 191.481 173.333 197.685 173.330 C 207.074 173.324,210.000 171.548,210.000 165.853 C 210.000 163.323,208.993 161.764,206.638 160.644 L 204.793 159.768 206.164 158.865 C 210.438 156.051,210.214 150.385,205.741 148.148 C 204.027 147.291,203.428 147.213,197.685 147.098 L 191.481 146.975 191.481 160.154 M217.774 158.408 C 215.291 164.682,212.941 170.616,212.553 171.594 L 211.847 173.374 213.608 173.261 L 215.370 173.148 216.811 169.528 L 218.252 165.908 224.151 166.010 L 230.050 166.111 231.423 169.630 L 232.795 173.148 234.546 173.261 C 235.509 173.323,236.296 173.318,236.296 173.251 C 236.296 173.183,233.986 167.299,231.162 160.175 L 226.027 147.222 224.158 147.111 L 222.288 147.001 217.774 158.408 M237.042 150.833 C 237.048 155.520,237.231 156.296,238.330 156.296 C 239.389 156.296,239.630 155.223,239.630 150.509 L 239.630 147.037 238.333 147.037 L 237.037 147.037 237.042 150.833 M203.649 150.157 C 205.102 150.908,205.617 151.882,205.648 153.935 C 205.701 157.429,204.045 158.611,198.796 158.827 L 195.185 158.975 195.185 154.364 C 195.185 151.828,195.310 149.623,195.463 149.463 C 195.937 148.969,202.412 149.517,203.649 150.157 M226.603 157.130 C 227.866 160.440,228.897 163.273,228.894 163.426 C 228.891 163.579,226.710 163.704,224.047 163.704 C 220.191 163.704,219.229 163.603,219.325 163.208 C 219.618 161.996,223.910 151.121,224.098 151.116 C 224.213 151.113,225.340 153.819,226.603 157.130 M204.346 161.980 C 206.497 163.104,207.278 165.891,206.087 168.196 C 205.159 169.990,203.052 170.723,198.796 170.733 L 195.185 170.741 195.185 165.878 L 195.185 161.016 199.167 161.185 C 201.909 161.301,203.521 161.549,204.346 161.980 M156.928 232.498 C 146.785 257.911,138.493 278.829,138.502 278.981 C 138.537 279.578,148.529 279.289,149.870 278.653 C 151.494 277.882,151.611 277.638,156.668 264.537 L 160.850 253.704 181.814 253.707 L 202.778 253.710 207.195 265.199 C 212.037 277.794,212.137 277.996,213.925 278.743 C 215.252 279.297,225.185 279.506,225.185 278.979 C 225.185 278.826,216.885 257.951,206.741 232.591 L 188.296 186.481 181.833 186.387 L 175.370 186.292 156.928 232.498 M237.778 232.787 L 237.778 279.277 243.981 279.176 L 250.185 279.074 250.279 232.685 L 250.373 186.296 244.076 186.296 L 237.778 186.296 237.778 232.787 M182.915 201.666 C 183.359 203.194,187.135 213.284,191.305 224.089 C 195.476 234.894,198.889 243.977,198.889 244.274 C 198.889 244.871,165.048 245.122,164.681 244.528 C 164.584 244.371,167.908 235.435,172.068 224.671 C 176.229 213.907,180.068 203.702,180.601 201.994 C 181.784 198.200,181.903 198.183,182.915 201.666 " stroke="none" fill="#e4e2e0" fill-rule="evenodd"></path><path id="path1" d="M105.926 212.593 L 105.926 310.370 200.185 310.370 L 294.444 310.370 294.444 212.593 L 294.444 114.815 200.185 114.815 L 105.926 114.815 105.926 212.593 M256.705 146.859 C 259.426 147.786,260.509 149.028,259.797 150.406 C 258.975 151.995,258.356 152.083,256.205 150.912 C 252.936 149.133,249.382 149.790,248.544 152.330 C 247.662 155.004,249.077 156.469,254.141 158.124 C 260.163 160.091,262.406 164.475,259.967 169.513 C 257.495 174.620,248.974 175.811,244.233 171.713 L 242.840 170.508 243.530 169.340 C 244.512 167.677,245.049 167.613,247.088 168.921 C 251.649 171.848,256.667 170.455,256.667 166.262 C 256.667 164.089,255.401 163.008,251.116 161.518 C 246.866 160.040,245.681 159.244,244.780 157.259 C 241.679 150.432,248.847 144.182,256.705 146.859 M145.273 152.130 C 147.009 155.134,148.630 157.982,148.874 158.458 C 149.292 159.269,149.541 158.938,152.910 153.087 L 156.500 146.852 158.806 146.742 C 161.749 146.601,161.919 146.017,156.296 155.370 L 151.481 163.380 151.481 168.542 L 151.481 173.704 149.259 173.704 L 147.037 173.704 147.037 168.426 L 147.036 163.148 142.257 155.185 C 136.923 146.298,137.022 146.667,139.969 146.667 L 142.117 146.667 145.273 152.130 M168.148 156.481 C 168.346 166.793,168.379 166.971,170.379 168.654 C 173.384 171.183,177.761 170.576,179.909 167.333 L 180.926 165.797 181.041 156.232 L 181.157 146.667 183.356 146.667 L 185.556 146.667 185.556 155.859 C 185.556 162.859,185.426 165.487,185.012 166.880 C 182.196 176.364,167.626 176.748,164.219 167.428 C 163.586 165.698,162.954 148.561,163.472 147.209 C 163.646 146.757,164.163 146.654,165.829 146.741 L 167.963 146.852 168.148 156.481 M206.123 147.800 C 210.406 150.006,210.982 155.861,207.200 158.746 L 205.881 159.752 206.929 160.192 C 211.623 162.166,211.922 169.098,207.442 172.117 C 205.455 173.456,203.901 173.699,197.315 173.702 L 191.111 173.704 191.111 160.162 L 191.111 146.620 197.697 146.736 C 203.919 146.845,204.385 146.904,206.123 147.800 M231.705 160.180 C 234.637 167.511,237.037 173.560,237.037 173.624 C 237.037 173.687,235.999 173.689,234.731 173.629 L 232.424 173.519 231.072 170.000 L 229.720 166.481 224.172 166.380 L 218.624 166.278 217.410 169.528 C 215.849 173.707,215.852 173.704,213.430 173.704 C 210.929 173.704,210.530 175.349,216.897 159.418 L 222.006 146.635 224.189 146.744 L 226.372 146.852 231.705 160.180 M240.120 151.225 C 240.052 155.885,239.790 156.667,238.301 156.667 C 236.969 156.667,236.667 155.604,236.667 150.930 L 236.667 146.626 238.426 146.739 L 240.185 146.852 240.120 151.225 M195.556 154.125 L 195.556 158.621 198.819 158.435 C 203.643 158.160,205.162 157.108,205.177 154.031 C 205.192 150.855,203.127 149.630,197.760 149.630 L 195.556 149.630 195.556 154.125 M223.715 153.148 C 223.486 153.759,222.535 156.224,221.601 158.624 C 219.582 163.814,219.326 163.383,224.353 163.253 L 228.434 163.148 226.282 157.593 C 224.206 152.231,224.116 152.076,223.715 153.148 M195.556 165.975 L 195.556 170.469 199.167 170.294 C 204.559 170.032,206.771 168.388,206.154 165.100 C 205.679 162.566,203.359 161.508,198.241 161.491 L 195.556 161.481 195.556 165.975 M207.260 232.593 L 225.853 279.074 219.727 279.176 C 211.231 279.317,212.667 280.862,206.526 264.975 L 202.383 254.259 181.805 254.164 L 161.226 254.068 156.832 265.460 C 153.384 274.403,152.185 277.111,151.257 278.056 L 150.074 279.259 143.895 279.259 C 140.386 279.259,137.769 279.115,137.840 278.926 C 137.907 278.742,146.291 257.739,156.470 232.251 L 174.976 185.910 181.822 186.011 L 188.667 186.111 207.260 232.593 M250.741 232.593 L 250.741 279.259 243.889 279.259 L 237.037 279.259 237.037 232.593 L 237.037 185.926 243.889 185.926 L 250.741 185.926 250.741 232.593 M180.845 202.870 C 180.414 204.245,176.714 214.022,172.621 224.597 C 168.529 235.171,165.239 243.881,165.310 243.952 C 165.382 244.024,172.850 244.038,181.906 243.985 L 198.372 243.889 191.215 225.370 C 187.279 215.185,183.622 205.519,183.088 203.889 C 181.810 199.983,181.756 199.959,180.845 202.870 " stroke="none" fill="#ec7424" fill-rule="evenodd"></path><path id="path2" d="M251.766 146.565 C 252.432 146.647,253.432 146.645,253.988 146.561 C 254.545 146.476,254.000 146.409,252.778 146.411 C 251.556 146.413,251.100 146.482,251.766 146.565 M138.987 146.932 C 139.550 147.018,140.383 147.015,140.838 146.927 C 141.294 146.839,140.833 146.770,139.815 146.773 C 138.796 146.775,138.424 146.847,138.987 146.932 M157.407 146.875 C 158.707 147.162,161.035 147.213,160.873 146.951 C 160.776 146.795,159.832 146.686,158.774 146.710 C 157.717 146.733,157.102 146.808,157.407 146.875 M164.912 146.932 C 165.475 147.018,166.309 147.015,166.764 146.927 C 167.220 146.839,166.759 146.770,165.741 146.773 C 164.722 146.775,164.350 146.847,164.912 146.932 M181.278 147.138 C 181.178 147.397,181.145 151.438,181.204 156.119 L 181.311 164.630 181.396 155.854 L 181.481 147.078 183.241 146.939 L 185.000 146.800 183.229 146.733 C 182.085 146.690,181.394 146.833,181.278 147.138 M191.280 147.132 C 191.182 147.388,191.147 153.429,191.204 160.558 L 191.306 173.519 191.394 160.287 L 191.481 147.056 197.130 146.944 L 202.778 146.831 197.118 146.749 C 192.856 146.687,191.414 146.782,191.280 147.132 M223.056 146.932 C 223.616 147.017,224.532 147.017,225.093 146.932 C 225.653 146.847,225.194 146.778,224.074 146.778 C 222.954 146.778,222.495 146.847,223.056 146.932 M237.690 146.929 C 238.150 147.017,238.817 147.014,239.171 146.921 C 239.525 146.828,239.148 146.756,238.333 146.760 C 237.519 146.764,237.229 146.840,237.690 146.929 M185.344 155.556 C 185.344 160.343,185.397 162.301,185.462 159.907 C 185.526 157.514,185.526 153.597,185.462 151.204 C 185.397 148.810,185.344 150.769,185.344 155.556 M195.353 154.166 L 195.370 158.704 197.963 158.728 L 200.556 158.752 198.067 158.619 L 195.578 158.487 195.456 154.057 L 195.335 149.628 195.353 154.166 M209.345 153.704 C 209.345 154.417,209.421 154.708,209.515 154.352 C 209.608 153.995,209.608 153.412,209.515 153.056 C 209.421 152.699,209.345 152.991,209.345 153.704 M244.175 154.074 C 244.175 154.991,244.247 155.366,244.335 154.907 C 244.424 154.449,244.424 153.699,244.335 153.241 C 244.247 152.782,244.175 153.157,244.175 154.074 M195.353 166.018 L 195.370 170.556 198.333 170.578 L 201.296 170.600 198.437 170.471 L 195.578 170.341 195.456 165.911 L 195.335 161.480 195.353 166.018 M224.074 163.333 L 219.444 163.554 223.960 163.629 C 226.654 163.673,228.567 163.554,228.704 163.333 C 228.830 163.130,228.881 162.997,228.818 163.038 C 228.755 163.079,226.620 163.212,224.074 163.333 M151.258 168.519 C 151.258 171.472,151.316 172.681,151.386 171.204 C 151.456 169.727,151.456 167.310,151.386 165.833 C 151.316 164.356,151.258 165.565,151.258 168.519 M163.790 164.444 C 163.790 165.157,163.866 165.449,163.959 165.093 C 164.052 164.736,164.052 164.153,163.959 163.796 C 163.866 163.440,163.790 163.731,163.790 164.444 M182.014 171.204 L 180.926 172.407 182.130 171.320 C 183.252 170.306,183.504 170.000,183.217 170.000 C 183.154 170.000,182.612 170.542,182.014 171.204 M250.550 232.593 C 250.550 258.157,250.594 268.616,250.648 255.833 C 250.702 243.051,250.702 222.134,250.648 209.352 C 250.594 196.569,250.550 207.028,250.550 232.593 M160.983 253.981 C 160.827 254.234,176.288 254.230,195.370 253.972 C 199.444 253.918,193.413 253.835,181.966 253.788 C 170.520 253.742,161.077 253.829,160.983 253.981 " stroke="none" fill="#e49a67" fill-rule="evenodd"></path><path id="path3" d="M163.862 155.185 C 163.862 159.769,163.915 161.644,163.980 159.352 C 164.045 157.060,164.045 153.310,163.980 151.019 C 163.915 148.727,163.862 150.602,163.862 155.185 M167.567 155.741 C 167.567 160.630,167.620 162.578,167.684 160.071 C 167.748 157.564,167.748 153.564,167.684 151.182 C 167.619 148.801,167.567 150.852,167.567 155.741 M236.802 150.556 C 236.803 152.593,236.865 153.379,236.940 152.302 C 237.015 151.226,237.014 149.559,236.938 148.599 C 236.862 147.638,236.801 148.519,236.802 150.556 M239.761 150.185 C 239.760 152.019,239.823 152.815,239.900 151.956 C 239.978 151.096,239.979 149.596,239.902 148.622 C 239.826 147.649,239.762 148.352,239.761 150.185 M196.759 149.529 C 197.523 149.609,198.773 149.609,199.537 149.529 C 200.301 149.449,199.676 149.384,198.148 149.384 C 196.620 149.384,195.995 149.449,196.759 149.529 M148.408 158.704 C 149.058 160.066,149.413 160.280,149.850 159.572 C 150.010 159.313,149.952 159.245,149.703 159.399 C 149.464 159.547,149.047 159.183,148.710 158.531 C 147.903 156.971,147.651 157.116,148.408 158.704 M196.759 161.383 C 197.727 161.460,199.310 161.460,200.278 161.383 C 201.245 161.307,200.454 161.245,198.519 161.245 C 196.583 161.245,195.792 161.307,196.759 161.383 M147.576 168.148 L 147.593 173.519 149.354 173.553 L 151.116 173.587 149.457 173.440 L 147.798 173.294 147.679 168.036 L 147.560 162.778 147.576 168.148 M260.464 165.370 C 260.468 166.185,260.544 166.475,260.632 166.014 C 260.721 165.553,260.718 164.887,260.625 164.533 C 260.532 164.179,260.460 164.556,260.464 165.370 M210.101 165.926 C 210.101 166.843,210.173 167.218,210.261 166.759 C 210.350 166.301,210.350 165.551,210.261 165.093 C 210.173 164.634,210.101 165.009,210.101 165.926 M223.873 166.199 C 227.994 166.280,229.881 166.453,230.105 166.769 C 230.337 167.096,230.385 167.068,230.275 166.667 C 230.149 166.202,229.126 166.109,224.044 166.096 L 217.963 166.081 223.873 166.199 M168.519 167.523 C 168.519 167.587,169.060 168.129,169.722 168.727 L 170.926 169.815 169.838 168.611 C 168.824 167.489,168.519 167.237,168.519 167.523 M257.940 171.574 L 256.852 172.778 258.056 171.690 C 258.718 171.092,259.259 170.550,259.259 170.486 C 259.259 170.200,258.954 170.452,257.940 171.574 M215.436 172.741 C 215.301 173.091,214.578 173.342,213.446 173.431 L 211.667 173.570 213.381 173.637 C 214.959 173.698,216.413 172.956,215.839 172.382 C 215.734 172.277,215.552 172.438,215.436 172.741 M232.222 172.448 C 232.222 173.483,235.865 174.331,236.424 173.426 C 236.519 173.273,235.832 173.209,234.898 173.283 C 233.584 173.388,233.090 173.268,232.711 172.750 C 232.442 172.382,232.222 172.246,232.222 172.448 M194.352 173.609 C 196.032 173.678,198.782 173.678,200.463 173.609 C 202.144 173.540,200.769 173.484,197.407 173.484 C 194.046 173.484,192.671 173.540,194.352 173.609 M173.241 173.972 C 173.903 174.054,174.986 174.054,175.648 173.972 C 176.310 173.889,175.769 173.822,174.444 173.822 C 173.120 173.822,172.579 173.889,173.241 173.972 M250.278 173.972 C 250.940 174.054,252.023 174.054,252.685 173.972 C 253.347 173.889,252.806 173.822,251.481 173.822 C 250.157 173.822,249.616 173.889,250.278 173.972 M177.593 186.178 C 183.017 186.445,188.435 186.458,188.277 186.204 C 188.182 186.051,185.239 185.958,181.737 185.997 C 178.236 186.037,176.370 186.118,177.593 186.178 M237.578 186.389 C 237.481 186.644,237.446 207.685,237.499 233.148 L 237.596 279.444 237.687 232.879 L 237.778 186.314 244.167 186.203 L 250.556 186.092 244.155 186.009 C 239.313 185.946,237.712 186.039,237.578 186.389 M164.763 244.541 C 164.918 244.696,172.701 244.779,182.059 244.726 L 199.074 244.629 181.778 244.444 C 172.265 244.343,164.608 244.386,164.763 244.541 " stroke="none" fill="#e4ac83" fill-rule="evenodd"></path><path id="path4" d="M163.499 147.139 C 163.400 147.398,163.364 151.190,163.419 155.565 L 163.520 163.519 163.704 155.092 C 163.885 146.841,163.868 146.178,163.499 147.139 M167.777 155.666 L 167.962 164.630 168.062 155.951 C 168.117 151.178,168.034 147.145,167.877 146.988 C 167.721 146.831,167.676 150.736,167.777 155.666 M239.997 149.924 L 240.179 153.148 240.291 150.220 C 240.353 148.610,240.271 147.159,240.109 146.996 C 239.947 146.833,239.897 148.151,239.997 149.924 M239.716 154.815 C 239.716 155.528,239.792 155.819,239.885 155.463 C 239.978 155.106,239.978 154.523,239.885 154.167 C 239.792 153.810,239.716 154.102,239.716 154.815 M146.547 162.222 C 146.714 162.528,146.944 165.278,147.056 168.333 L 147.260 173.889 147.334 168.497 C 147.394 164.065,147.304 162.977,146.824 162.386 C 146.504 161.990,146.379 161.917,146.547 162.222 M210.471 165.926 C 210.471 166.843,210.543 167.218,210.632 166.759 C 210.720 166.301,210.720 165.551,210.632 165.093 C 210.543 164.634,210.471 165.009,210.471 165.926 M208.543 170.840 C 207.488 172.140,207.447 172.249,208.299 171.481 C 209.185 170.683,210.237 169.246,209.920 169.266 C 209.862 169.270,209.243 169.978,208.543 170.840 M165.556 170.116 C 165.556 170.180,166.097 170.721,166.759 171.320 L 167.963 172.407 166.875 171.204 C 165.861 170.082,165.556 169.830,165.556 170.116 M237.217 232.593 C 237.217 258.361,237.261 268.903,237.315 256.019 C 237.369 243.134,237.369 222.051,237.315 209.167 C 237.261 196.282,237.217 206.824,237.217 232.593 M173.266 244.352 C 178.016 244.410,185.683 244.410,190.303 244.351 C 194.923 244.293,191.037 244.245,181.667 244.245 C 172.296 244.245,168.516 244.293,173.266 244.352 " stroke="none" fill="#eb7c3a" fill-rule="evenodd"></path></g></svg>